<svg width="24" height="25" viewBox="0 0 24 25" fill="none" xmlns="http://www.w3.org/2000/svg">
<g clip-path="url(#clip0_706_11392)">
<path d="M16.8503 0.916016H7.14973C3.20735 0.916016 0 4.12337 0 8.06575V17.7663C0 21.7087 3.20735 24.916 7.14973 24.916H16.8503C20.7926 24.916 24 21.7087 24 17.7663V8.06575C24 4.12337 20.7926 0.916016 16.8503 0.916016ZM21.5856 17.7663C21.5856 20.3815 19.4655 22.5016 16.8503 22.5016H7.14973C4.5345 22.5016 2.4144 20.3815 2.4144 17.7663V8.06575C2.4144 5.45047 4.5345 3.33041 7.14973 3.33041H16.8503C19.4655 3.33041 21.5856 5.45047 21.5856 8.06575V17.7663Z" fill="url(#paint0_linear_706_11392)"/>
<path d="M11.9963 6.70898C8.57363 6.70898 5.78906 9.49355 5.78906 12.9162C5.78906 16.3388 8.57363 19.1234 11.9963 19.1234C15.419 19.1234 18.2036 16.3389 18.2036 12.9162C18.2036 9.49351 15.419 6.70898 11.9963 6.70898ZM11.9963 16.7091C9.90156 16.7091 8.20346 15.011 8.20346 12.9162C8.20346 10.8215 9.90161 9.12338 11.9963 9.12338C14.0911 9.12338 15.7892 10.8215 15.7892 12.9162C15.7892 15.0109 14.091 16.7091 11.9963 16.7091Z" fill="url(#paint1_linear_706_11392)"/>
<path d="M18.2218 8.24235C19.0432 8.24235 19.7091 7.57642 19.7091 6.75496C19.7091 5.9335 19.0432 5.26758 18.2218 5.26758C17.4003 5.26758 16.7344 5.9335 16.7344 6.75496C16.7344 7.57642 17.4003 8.24235 18.2218 8.24235Z" fill="url(#paint2_linear_706_11392)"/>
</g>
<defs>
<linearGradient id="paint0_linear_706_11392" x1="12" y1="24.8462" x2="12" y2="1.10243" gradientUnits="userSpaceOnUse">
<stop stop-color="#E09B3D"/>
<stop offset="0.3" stop-color="#C74C4D"/>
<stop offset="0.6" stop-color="#C21975"/>
<stop offset="1" stop-color="#7024C4"/>
</linearGradient>
<linearGradient id="paint1_linear_706_11392" x1="11.9963" y1="24.8464" x2="11.9963" y2="1.10265" gradientUnits="userSpaceOnUse">
<stop stop-color="#E09B3D"/>
<stop offset="0.3" stop-color="#C74C4D"/>
<stop offset="0.6" stop-color="#C21975"/>
<stop offset="1" stop-color="#7024C4"/>
</linearGradient>
<linearGradient id="paint2_linear_706_11392" x1="18.2218" y1="24.8458" x2="18.2218" y2="1.10203" gradientUnits="userSpaceOnUse">
<stop stop-color="#E09B3D"/>
<stop offset="0.3" stop-color="#C74C4D"/>
<stop offset="0.6" stop-color="#C21975"/>
<stop offset="1" stop-color="#7024C4"/>
</linearGradient>
<clipPath id="clip0_706_11392">
<rect width="24" height="24" fill="white" transform="translate(0 0.916016)"/>
</clipPath>
</defs>
</svg>
