<svg width="24" height="25" viewBox="0 0 24 25" fill="none" xmlns="http://www.w3.org/2000/svg">
<g clip-path="url(#clip0_706_11625)">
<path d="M0 0.916016H24V24.916H0" fill="#0077B5"/>
<path d="M6.65625 9.11914C7.61412 9.11914 8.39062 8.34263 8.39062 7.38477C8.39062 6.4269 7.61412 5.65039 6.65625 5.65039C5.69838 5.65039 4.92188 6.4269 4.92188 7.38477C4.92188 8.34263 5.69838 9.11914 6.65625 9.11914Z" fill="white"/>
<path d="M11.4375 10.0098V19.291V10.0098ZM6.65625 10.0098V19.291V10.0098Z" fill="white"/>
<path d="M11.4375 10.0098V19.291M6.65625 10.0098V19.291" stroke="white" strokeWidth="2.57812"/>
<path d="M12.9375 14.1348C12.9375 13.1973 13.5469 12.2598 14.625 12.2598C15.75 12.2598 16.1719 13.1035 16.1719 14.3691V19.291H19.2656V13.9941C19.2656 11.1348 17.7656 9.82227 15.7031 9.82227C14.1094 9.82227 13.3125 10.7129 12.9375 11.3223" fill="white"/>
</g>
<defs>
<clipPath id="clip0_706_11625">
<rect width="24" height="24" fill="white" transform="translate(0 0.916016)"/>
</clipPath>
</defs>
</svg>
