<svg width="44" height="45" viewBox="0 0 44 45" fill="none" xmlns="http://www.w3.org/2000/svg">
<g clip-path="url(#clip0_699_11167)">
<path d="M13.75 0.916016H0V14.666H13.75V0.916016ZM11 11.916H2.75V3.66602H11V11.916Z" fill="#820000"/>
<path d="M8.25 6.41602H5.5V9.16602H8.25V6.41602Z" fill="#820000"/>
<path d="M30.25 0.916016V14.666H44V0.916016H30.25ZM41.25 11.916H33V3.66602H41.25V11.916Z" fill="#820000"/>
<path d="M38.5 6.41602H35.75V9.16602H38.5V6.41602Z" fill="#820000"/>
<path d="M0 44.916H13.75V31.166H0V44.916ZM2.75 33.916H11V42.166H2.75V33.916Z" fill="#820000"/>
<path d="M8.25 36.666H5.5V39.416H8.25V36.666Z" fill="#820000"/>
<path d="M27.5 0.916016H22V3.66602H27.5V0.916016Z" fill="#820000"/>
<path d="M22 11.916H24.75V9.16602H27.5V6.41602H19.25V3.66602H16.5V6.41602V7.79102V9.16602H22V11.916Z" fill="#820000"/>
<path d="M19.25 11.916H16.5V14.666H19.25V11.916Z" fill="#820000"/>
<path d="M27.5 14.666H24.75V17.416H16.5V20.166H27.5V14.666Z" fill="#820000"/>
<path d="M2.75 25.666H5.5V22.916H2.75V17.416H0V28.416H2.75V25.666Z" fill="#820000"/>
<path d="M8.25 17.416H5.5V20.166H8.25V17.416Z" fill="#820000"/>
<path d="M16.5 28.416H22V25.666H19.25V22.916H13.75V17.416H11V22.916H8.25V28.416H11V25.666H12.375H13.75H16.5V28.416Z" fill="#820000"/>
<path d="M27.5 22.916H24.75V28.416H27.5V22.916Z" fill="#820000"/>
<path d="M24.75 31.166H16.5V33.916H22V42.166H16.5V44.916H24.75V42.166H30.25V39.416H24.75V31.166Z" fill="#820000"/>
<path d="M19.25 36.666H16.5V39.416H19.25V36.666Z" fill="#820000"/>
<path d="M30.25 31.166H27.5V36.666H30.25V31.166Z" fill="#820000"/>
<path d="M41.25 36.666H33V44.916H35.75V39.416H41.25V36.666Z" fill="#820000"/>
<path d="M44 42.166H38.5V44.916H44V42.166Z" fill="#820000"/>
<path d="M44 31.166H41.25V33.916H44V31.166Z" fill="#820000"/>
<path d="M33 33.916H35.75V25.666H30.25V28.416H33V33.916Z" fill="#820000"/>
<path d="M38.5 20.166H35.75V17.416H33V20.166H30.25V22.916H41.25V20.166H44V17.416H38.5V20.166Z" fill="#820000"/>
<path d="M44 25.666H38.5V28.416H44V25.666Z" fill="#820000"/>
</g>
<defs>
<clipPath id="clip0_699_11167">
<rect width="44" height="44" fill="white" transform="translate(0 0.916016)"/>
</clipPath>
</defs>
</svg>
