<svg width="44" height="45" viewBox="0 0 44 45" fill="none" xmlns="http://www.w3.org/2000/svg">
<g clip-path="url(#clip0_699_11287)">
<path d="M34.4443 12.6031C34.135 11.4343 33.4131 10.4718 32.3475 9.88747C31.3162 9.30309 30.1131 9.13122 28.9443 9.44059C27.7756 9.74997 26.8131 10.5062 26.2287 11.5375L14.1287 32.5406C12.9943 34.5343 12.3068 36.7687 12.1693 39.0375L11.8943 43.4718C11.86 43.85 12.0662 44.2281 12.41 44.4343C12.5818 44.5375 12.7537 44.5718 12.9256 44.5718C13.1318 44.5718 13.3381 44.5031 13.51 44.4L17.2225 41.9593C19.1131 40.6875 20.7287 39.0031 21.8631 37.0093L32.76 18.1031C33.6881 18.825 33.9631 20.1312 33.3443 21.1968L27.8443 30.7187C27.5693 31.2 27.7412 31.8531 28.2225 32.1281C28.3943 32.2312 28.5662 32.2656 28.7381 32.2656C29.0818 32.2656 29.4256 32.0937 29.6318 31.75L35.1318 22.2281C36.3006 20.2 35.6818 17.6218 33.7912 16.3156L33.9631 16.0062C34.6162 14.975 34.7537 13.7718 34.4443 12.6031ZM32.21 14.975L20.0756 35.9781C19.0787 37.6625 17.7037 39.1406 16.0537 40.2406L14.06 41.5468L14.1975 39.175C14.3006 37.2156 14.885 35.2906 15.8818 33.5718L28.0162 12.5687C28.3256 12.0187 28.8412 11.6062 29.4943 11.4343C29.7006 11.3656 29.9068 11.3656 30.1131 11.3656C30.5256 11.3656 30.9381 11.4687 31.3162 11.675C32.485 12.3625 32.8975 13.8406 32.21 14.975Z" fill="#820000"/>
<path d="M33.6531 40.138L32.9312 42.4412C32.9312 42.4755 32.8968 42.5099 32.8281 42.5099C32.7593 42.5099 32.725 42.4755 32.725 42.4412L32.4156 41.8568C32.0375 41.1349 31.35 40.688 30.5593 40.6537C29.7687 40.6193 29.0125 41.0318 28.5656 41.7193L27.5687 42.888C27.1906 43.3349 27.2593 43.988 27.6718 44.3318C27.8781 44.5037 28.1187 44.5724 28.325 44.5724C28.6 44.5724 28.9093 44.4349 29.1156 44.1943L30.1468 42.9912C30.1812 42.9568 30.2156 42.888 30.25 42.8537C30.3187 42.7505 30.3875 42.7162 30.4562 42.7162C30.4562 42.7162 30.4906 42.7162 30.525 42.7849L30.8343 43.3693C31.2468 44.1599 32.0718 44.6412 32.9656 44.5724C33.8593 44.5037 34.5812 43.9193 34.8562 43.0599L35.5781 40.7568C35.6468 40.5162 35.8187 40.4818 35.9218 40.4818C36.025 40.4818 36.2312 40.4818 36.3343 40.688L37.3656 42.6474C37.8812 43.6099 38.775 44.2287 39.8406 44.4005C40.9062 44.5724 41.9718 44.2287 42.7281 43.438C43.1406 43.0255 43.1406 42.3724 42.7281 41.9943C42.3156 41.5818 41.6625 41.5818 41.2843 41.9943C40.975 42.3037 40.5968 42.4412 40.15 42.3724C39.7375 42.3037 39.3937 42.063 39.1875 41.6849L38.1562 39.7255C37.675 38.8318 36.7468 38.3162 35.75 38.4193C34.7875 38.488 33.9625 39.1755 33.6531 40.138Z" fill="#820000"/>
<path d="M6.1875 6.07227C5.60312 6.07227 5.15625 6.51914 5.15625 7.10352C5.15625 7.68789 5.60312 8.13477 6.1875 8.13477H7.5625C8.14687 8.13477 8.59375 7.68789 8.59375 7.10352C8.59375 6.51914 8.14687 6.07227 7.5625 6.07227H6.1875Z" fill="#820000"/>
<path d="M11.6875 6.07227C11.1031 6.07227 10.6562 6.51914 10.6562 7.10352C10.6562 7.68789 11.1031 8.13477 11.6875 8.13477H13.0625C13.6469 8.13477 14.0938 7.68789 14.0938 7.10352C14.0938 6.51914 13.6469 6.07227 13.0625 6.07227H11.6875Z" fill="#820000"/>
<path d="M39.1875 1.25977H4.8125C2.3375 1.25977 0.34375 3.25352 0.34375 5.72852V43.541C0.34375 44.1254 0.790625 44.5723 1.375 44.5723C1.95938 44.5723 2.40625 44.1254 2.40625 43.541V12.9473H18.5625C19.1469 12.9473 19.5938 12.5004 19.5938 11.916C19.5938 11.3316 19.1469 10.8848 18.5625 10.8848H2.40625V5.72852C2.40625 4.38789 3.47187 3.32227 4.8125 3.32227H39.1875C40.5281 3.32227 41.5938 4.38789 41.5938 5.72852V36.666C41.5938 37.2504 42.0406 37.6973 42.625 37.6973C43.2094 37.6973 43.6562 37.2504 43.6562 36.666V5.72852C43.6562 3.25352 41.6625 1.25977 39.1875 1.25977Z" fill="#820000"/>
<path d="M19.9375 42.5098C19.3531 42.5098 18.9062 42.9566 18.9062 43.541C18.9062 44.1254 19.3531 44.5723 19.9375 44.5723H23.375C23.9594 44.5723 24.4062 44.1254 24.4062 43.541C24.4062 42.9566 23.9594 42.5098 23.375 42.5098H19.9375Z" fill="#820000"/>
</g>
<defs>
<clipPath id="clip0_699_11287">
<rect width="44" height="44" fill="white" transform="translate(0 0.916016)"/>
</clipPath>
</defs>
</svg>
