<svg width="26" height="21" viewBox="0 0 26 21" fill="none" xmlns="http://www.w3.org/2000/svg">
<g clip-path="url(#clip0_706_11337)">
<path fill-rule="evenodd" clip-rule="evenodd" d="M25.9984 3.25887C25.0417 3.65735 24.0138 3.92554 22.9353 4.04744C24.0362 3.42802 24.882 2.44744 25.2801 1.27944C24.2495 1.85278 23.1079 2.26916 21.8928 2.49354C20.9202 1.52173 19.5335 0.916016 17.9995 0.916016C15.0542 0.916016 12.6655 3.15602 12.6655 5.91792C12.6655 6.3103 12.7122 6.69202 12.8036 7.05811C8.36977 6.84859 4.43889 4.85621 1.80842 1.83144C1.34936 2.57049 1.08631 3.42916 1.08631 4.34573C1.08631 6.08097 2.028 7.61182 3.45881 8.50954C2.58537 8.48287 1.76231 8.25811 1.04325 7.88287V7.94573C1.04325 10.3705 2.88356 12.3914 5.32106 12.8514C4.87419 12.9657 4.40294 13.0267 3.91828 13.0267C3.57459 13.0267 3.23984 12.9962 2.91484 12.9372C3.59328 14.925 5.56359 16.3711 7.8975 16.4114C6.07181 17.7524 3.77163 18.5524 1.27156 18.5524C0.840938 18.5524 0.417219 18.5295 0 18.4827C2.36031 19.9021 5.16466 20.7303 8.1768 20.7303C17.9877 20.7303 23.3533 13.1074 23.3533 6.49792C23.3533 6.28078 23.348 6.06554 23.3378 5.8503C24.3803 5.14554 25.285 4.26363 26 3.25982" fill="black"/>
</g>
<defs>
<clipPath id="clip0_706_11337">
<rect width="26" height="20" fill="white" transform="translate(0 0.916016)"/>
</clipPath>
</defs>
</svg>
